<svg width="512" height="512" viewBox="0 0 512 512" fill="none" xmlns="http://www.w3.org/2000/svg" role="img" aria-labelledby="title desc">
  <title id="title">Inori Logo Mark</title>
  <desc id="desc">A glowing pixel diamond and open book logo mark for the Inori series.</desc>
  <defs>
    <linearGradient id="bg" x1="88" y1="72" x2="424" y2="440" gradientUnits="userSpaceOnUse">
      <stop stop-color="#171A3A"/>
      <stop offset="0.48" stop-color="#271A55"/>
      <stop offset="1" stop-color="#0E2447"/>
    </linearGradient>
    <linearGradient id="gem" x1="150" y1="124" x2="378" y2="384" gradientUnits="userSpaceOnUse">
      <stop stop-color="#BDEBFF"/>
      <stop offset="0.45" stop-color="#A78BFA"/>
      <stop offset="1" stop-color="#5EEAD4"/>
    </linearGradient>
    <linearGradient id="page" x1="132" y1="244" x2="380" y2="368" gradientUnits="userSpaceOnUse">
      <stop stop-color="#F8FBFF"/>
      <stop offset="1" stop-color="#C7D2FE"/>
    </linearGradient>
    <filter id="glow" x="48" y="42" width="416" height="428" filterUnits="userSpaceOnUse" color-interpolation-filters="sRGB">
      <feFlood flood-opacity="0" result="BackgroundImageFix"/>
      <feGaussianBlur in="SourceAlpha" stdDeviation="18" result="blur"/>
      <feColorMatrix in="blur" type="matrix" values="0 0 0 0 0.49 0 0 0 0 0.37 0 0 0 0 1 0 0 0 0.65 0"/>
      <feBlend in2="BackgroundImageFix" mode="screen" result="effect"/>
      <feBlend in="SourceGraphic" in2="effect" result="shape"/>
    </filter>
    <filter id="softShadow" x="75" y="92" width="362" height="332" filterUnits="userSpaceOnUse" color-interpolation-filters="sRGB">
      <feDropShadow dx="0" dy="24" stdDeviation="20" flood-color="#020617" flood-opacity="0.35"/>
    </filter>
  </defs>

  <rect x="48" y="48" width="416" height="416" rx="104" fill="url(#bg)"/>
  <rect x="50" y="50" width="412" height="412" rx="102" stroke="#FFFFFF" stroke-opacity="0.12" stroke-width="4"/>

  <g opacity="0.55">
    <rect x="96" y="128" width="26" height="26" rx="6" fill="#A78BFA"/>
    <rect x="388" y="154" width="20" height="20" rx="5" fill="#5EEAD4"/>
    <rect x="362" y="352" width="28" height="28" rx="7" fill="#93C5FD"/>
    <rect x="111" y="358" width="18" height="18" rx="5" fill="#F0ABFC"/>
    <rect x="405" y="291" width="14" height="14" rx="4" fill="#C4B5FD"/>
  </g>

  <g filter="url(#softShadow)">
    <path d="M256 84L390 218L256 352L122 218L256 84Z" fill="#111827" fill-opacity="0.55"/>
    <path d="M256 102L372 218L256 334L140 218L256 102Z" fill="url(#gem)" filter="url(#glow)"/>
    <path d="M256 102V334L140 218L256 102Z" fill="#FFFFFF" fill-opacity="0.14"/>
    <path d="M256 102L372 218H140L256 102Z" fill="#FFFFFF" fill-opacity="0.18"/>
    <path d="M197 218L256 102L315 218L256 334L197 218Z" fill="#10132F" fill-opacity="0.18"/>
    <path d="M140 218H372" stroke="#FFFFFF" stroke-opacity="0.42" stroke-width="8" stroke-linecap="round"/>
    <path d="M256 102V334" stroke="#FFFFFF" stroke-opacity="0.28" stroke-width="8" stroke-linecap="round"/>
  </g>

  <g filter="url(#softShadow)">
    <path d="M122 280C160 252 209 253 246 286V396C209 365 160 361 122 388V280Z" fill="url(#page)"/>
    <path d="M390 280C352 252 303 253 266 286V396C303 365 352 361 390 388V280Z" fill="url(#page)"/>
    <path d="M246 286C251 291 253 297 256 304C259 297 261 291 266 286V396C262 400 259 405 256 412C253 405 250 400 246 396V286Z" fill="#8B5CF6"/>
    <path d="M146 304C173 291 206 294 228 315" stroke="#6D5BD0" stroke-opacity="0.55" stroke-width="8" stroke-linecap="round"/>
    <path d="M146 338C174 325 205 328 228 348" stroke="#6D5BD0" stroke-opacity="0.32" stroke-width="8" stroke-linecap="round"/>
    <path d="M366 304C339 291 306 294 284 315" stroke="#2563EB" stroke-opacity="0.5" stroke-width="8" stroke-linecap="round"/>
    <path d="M366 338C338 325 307 328 284 348" stroke="#2563EB" stroke-opacity="0.3" stroke-width="8" stroke-linecap="round"/>
  </g>

  <path d="M74 256C74 155.5 155.5 74 256 74" stroke="#FFFFFF" stroke-opacity="0.12" stroke-width="8" stroke-linecap="round"/>
  <path d="M438 256C438 356.5 356.5 438 256 438" stroke="#5EEAD4" stroke-opacity="0.22" stroke-width="8" stroke-linecap="round"/>
</svg>
